<mxfile host="app.diagrams.net" agent="Mozilla/5.0 (Macintosh; Intel Mac OS X 10_15_7) AppleWebKit/537.36 (KHTML, like Gecko) Chrome/132.0.0.0 Safari/537.36" version="26.1.3">
  <diagram id="R2lEEEUBdFMjLlhIrx00" name="Page-1">
    <mxGraphModel dx="2941" dy="1100" grid="0" gridSize="10" guides="1" tooltips="1" connect="1" arrows="1" fold="1" page="0" pageScale="1" pageWidth="850" pageHeight="1100" math="0" shadow="0" extFonts="Permanent Marker^https://fonts.googleapis.com/css?family=Permanent+Marker">
      <root>
        <mxCell id="0" />
        <mxCell id="1" parent="0" />
        <mxCell id="Q7mi7OF3EURctunxMx_V-1" value="项目" style="rounded=0;whiteSpace=wrap;html=1;" parent="1" vertex="1">
          <mxGeometry x="-302" y="424" width="120" height="60" as="geometry" />
        </mxCell>
        <mxCell id="Q7mi7OF3EURctunxMx_V-2" value="模版" style="rounded=0;whiteSpace=wrap;html=1;" parent="1" vertex="1">
          <mxGeometry x="-109" y="69.5" width="120" height="60" as="geometry" />
        </mxCell>
        <mxCell id="Q7mi7OF3EURctunxMx_V-3" value="工作流" style="rounded=0;whiteSpace=wrap;html=1;" parent="1" vertex="1">
          <mxGeometry x="-572" y="69.5" width="120" height="60" as="geometry" />
        </mxCell>
        <mxCell id="Q7mi7OF3EURctunxMx_V-4" value="工作流状态" style="rounded=0;whiteSpace=wrap;html=1;" parent="1" vertex="1">
          <mxGeometry x="-288" y="69.5" width="120" height="60" as="geometry" />
        </mxCell>
        <mxCell id="Q7mi7OF3EURctunxMx_V-5" value="迭代" style="rounded=0;whiteSpace=wrap;html=1;" parent="1" vertex="1">
          <mxGeometry x="83" y="67" width="120" height="60" as="geometry" />
        </mxCell>
        <mxCell id="Q7mi7OF3EURctunxMx_V-6" value="触发对象" style="rounded=0;whiteSpace=wrap;html=1;" parent="1" vertex="1">
          <mxGeometry x="-377.5" y="796" width="120" height="60" as="geometry" />
        </mxCell>
        <mxCell id="Q7mi7OF3EURctunxMx_V-7" value="执行对象" style="rounded=0;whiteSpace=wrap;html=1;" parent="1" vertex="1">
          <mxGeometry x="-34.5" y="796" width="120" height="60" as="geometry" />
        </mxCell>
        <mxCell id="Q7mi7OF3EURctunxMx_V-8" value="统计" style="rounded=0;whiteSpace=wrap;html=1;" parent="1" vertex="1">
          <mxGeometry x="412" y="419" width="120" height="60" as="geometry" />
        </mxCell>
        <mxCell id="Q7mi7OF3EURctunxMx_V-9" value="指标" style="rounded=0;whiteSpace=wrap;html=1;" parent="1" vertex="1">
          <mxGeometry x="412" y="89" width="120" height="60" as="geometry" />
        </mxCell>
        <mxCell id="Q7mi7OF3EURctunxMx_V-10" value="项目仪表盘" style="rounded=0;whiteSpace=wrap;html=1;" parent="1" vertex="1">
          <mxGeometry x="412" y="1056" width="120" height="60" as="geometry" />
        </mxCell>
        <mxCell id="Q7mi7OF3EURctunxMx_V-11" value="项目仪表盘卡片" style="rounded=0;whiteSpace=wrap;html=1;" parent="1" vertex="1">
          <mxGeometry x="412" y="704" width="120" height="60" as="geometry" />
        </mxCell>
        <mxCell id="Q7mi7OF3EURctunxMx_V-12" value="用户" style="rounded=0;whiteSpace=wrap;html=1;" parent="1" vertex="1">
          <mxGeometry x="-740" y="69.5" width="120" height="60" as="geometry" />
        </mxCell>
        <mxCell id="Q7mi7OF3EURctunxMx_V-13" value="公司" style="rounded=0;whiteSpace=wrap;html=1;" parent="1" vertex="1">
          <mxGeometry x="-593" y="424" width="120" height="60" as="geometry" />
        </mxCell>
        <mxCell id="Q7mi7OF3EURctunxMx_V-14" value="企业微信" style="rounded=0;whiteSpace=wrap;html=1;" parent="1" vertex="1">
          <mxGeometry x="-937" y="424" width="120" height="60" as="geometry" />
        </mxCell>
        <mxCell id="Q7mi7OF3EURctunxMx_V-15" value="组织架构" style="rounded=0;whiteSpace=wrap;html=1;" parent="1" vertex="1">
          <mxGeometry x="-815.5" y="773" width="120" height="60" as="geometry" />
        </mxCell>
        <mxCell id="Q7mi7OF3EURctunxMx_V-16" value="服务集成" style="rounded=0;whiteSpace=wrap;html=1;" parent="1" vertex="1">
          <mxGeometry x="-538.5" y="799" width="120" height="60" as="geometry" />
        </mxCell>
        <mxCell id="6-voDm71mwFC1DvUqmNY-1" value="包含" style="rhombus;whiteSpace=wrap;html=1;rotation=45;" vertex="1" parent="1">
          <mxGeometry x="-685.5" y="639" width="64" height="105" as="geometry" />
        </mxCell>
        <mxCell id="6-voDm71mwFC1DvUqmNY-3" value="1" style="endArrow=none;html=1;rounded=0;exitX=0.5;exitY=1;exitDx=0;exitDy=0;entryX=0.5;entryY=0;entryDx=0;entryDy=0;" edge="1" parent="1" source="Q7mi7OF3EURctunxMx_V-13" target="6-voDm71mwFC1DvUqmNY-1">
          <mxGeometry width="50" height="50" relative="1" as="geometry">
            <mxPoint x="-434" y="503" as="sourcePoint" />
            <mxPoint x="-384" y="453" as="targetPoint" />
          </mxGeometry>
        </mxCell>
        <mxCell id="6-voDm71mwFC1DvUqmNY-4" value="1" style="endArrow=none;html=1;rounded=0;exitX=0.5;exitY=1;exitDx=0;exitDy=0;entryX=0.5;entryY=0;entryDx=0;entryDy=0;" edge="1" parent="1" source="6-voDm71mwFC1DvUqmNY-1" target="Q7mi7OF3EURctunxMx_V-15">
          <mxGeometry width="50" height="50" relative="1" as="geometry">
            <mxPoint x="-452.5" y="733" as="sourcePoint" />
            <mxPoint x="-452.5" y="805" as="targetPoint" />
          </mxGeometry>
        </mxCell>
        <mxCell id="6-voDm71mwFC1DvUqmNY-5" value="加入" style="rhombus;whiteSpace=wrap;html=1;rotation=0;" vertex="1" parent="1">
          <mxGeometry x="-720" y="171.5" width="80" height="105" as="geometry" />
        </mxCell>
        <mxCell id="6-voDm71mwFC1DvUqmNY-6" value="1" style="endArrow=none;html=1;rounded=0;exitX=0.5;exitY=1;exitDx=0;exitDy=0;entryX=0.5;entryY=0;entryDx=0;entryDy=0;" edge="1" parent="1" source="Q7mi7OF3EURctunxMx_V-12" target="6-voDm71mwFC1DvUqmNY-5">
          <mxGeometry width="50" height="50" relative="1" as="geometry">
            <mxPoint x="-670" y="387.5" as="sourcePoint" />
            <mxPoint x="-670" y="446.5" as="targetPoint" />
          </mxGeometry>
        </mxCell>
        <mxCell id="6-voDm71mwFC1DvUqmNY-8" value="n" style="endArrow=none;html=1;rounded=0;exitX=0.5;exitY=1;exitDx=0;exitDy=0;entryX=0.5;entryY=0;entryDx=0;entryDy=0;" edge="1" parent="1" source="6-voDm71mwFC1DvUqmNY-5" target="Q7mi7OF3EURctunxMx_V-13">
          <mxGeometry width="50" height="50" relative="1" as="geometry">
            <mxPoint x="-518" y="19" as="sourcePoint" />
            <mxPoint x="-518" y="61" as="targetPoint" />
          </mxGeometry>
        </mxCell>
        <mxCell id="6-voDm71mwFC1DvUqmNY-9" value="关联" style="rhombus;whiteSpace=wrap;html=1;rotation=90;" vertex="1" parent="1">
          <mxGeometry x="-761" y="401.5" width="64" height="105" as="geometry" />
        </mxCell>
        <mxCell id="6-voDm71mwFC1DvUqmNY-11" value="1" style="endArrow=none;html=1;rounded=0;exitX=0;exitY=0.5;exitDx=0;exitDy=0;entryX=0.5;entryY=0;entryDx=0;entryDy=0;" edge="1" parent="1" source="Q7mi7OF3EURctunxMx_V-13" target="6-voDm71mwFC1DvUqmNY-9">
          <mxGeometry width="50" height="50" relative="1" as="geometry">
            <mxPoint x="-518" y="19" as="sourcePoint" />
            <mxPoint x="-518" y="61" as="targetPoint" />
          </mxGeometry>
        </mxCell>
        <mxCell id="6-voDm71mwFC1DvUqmNY-12" value="1" style="endArrow=none;html=1;rounded=0;exitX=0.5;exitY=1;exitDx=0;exitDy=0;entryX=1;entryY=0.5;entryDx=0;entryDy=0;" edge="1" parent="1" source="6-voDm71mwFC1DvUqmNY-9" target="Q7mi7OF3EURctunxMx_V-14">
          <mxGeometry width="50" height="50" relative="1" as="geometry">
            <mxPoint x="-703" y="605" as="sourcePoint" />
            <mxPoint x="-778" y="605" as="targetPoint" />
          </mxGeometry>
        </mxCell>
        <mxCell id="6-voDm71mwFC1DvUqmNY-14" value="包含" style="rhombus;whiteSpace=wrap;html=1;rotation=-90;" vertex="1" parent="1">
          <mxGeometry x="-411" y="47" width="64" height="105" as="geometry" />
        </mxCell>
        <mxCell id="6-voDm71mwFC1DvUqmNY-18" value="n" style="endArrow=none;html=1;rounded=0;entryX=0;entryY=0.5;entryDx=0;entryDy=0;exitX=0.5;exitY=1;exitDx=0;exitDy=0;" edge="1" parent="1" source="6-voDm71mwFC1DvUqmNY-14" target="Q7mi7OF3EURctunxMx_V-4">
          <mxGeometry width="50" height="50" relative="1" as="geometry">
            <mxPoint x="-318" y="99.5" as="sourcePoint" />
            <mxPoint x="-714" y="-299.5" as="targetPoint" />
            <mxPoint as="offset" />
          </mxGeometry>
        </mxCell>
        <mxCell id="6-voDm71mwFC1DvUqmNY-21" value="n" style="endArrow=none;html=1;rounded=0;exitX=1;exitY=0.5;exitDx=0;exitDy=0;entryX=0.5;entryY=0;entryDx=0;entryDy=0;" edge="1" parent="1" source="Q7mi7OF3EURctunxMx_V-3" target="6-voDm71mwFC1DvUqmNY-14">
          <mxGeometry x="0.0081" width="50" height="50" relative="1" as="geometry">
            <mxPoint x="-365" y="-30.5" as="sourcePoint" />
            <mxPoint x="-365" y="4.5" as="targetPoint" />
            <mxPoint as="offset" />
          </mxGeometry>
        </mxCell>
        <mxCell id="6-voDm71mwFC1DvUqmNY-22" value="工作项" style="rounded=0;whiteSpace=wrap;html=1;" vertex="1" parent="1">
          <mxGeometry x="27" y="422" width="120" height="60" as="geometry" />
        </mxCell>
        <mxCell id="6-voDm71mwFC1DvUqmNY-23" value="包含" style="rhombus;whiteSpace=wrap;html=1;rotation=-90;" vertex="1" parent="1">
          <mxGeometry x="-428" y="401.5" width="64" height="105" as="geometry" />
        </mxCell>
        <mxCell id="6-voDm71mwFC1DvUqmNY-25" value="1" style="endArrow=none;html=1;rounded=0;entryX=1;entryY=0.5;entryDx=0;entryDy=0;exitX=0.5;exitY=0;exitDx=0;exitDy=0;" edge="1" parent="1" source="6-voDm71mwFC1DvUqmNY-23" target="Q7mi7OF3EURctunxMx_V-13">
          <mxGeometry width="50" height="50" relative="1" as="geometry">
            <mxPoint x="-418" y="545" as="sourcePoint" />
            <mxPoint x="-518" y="61" as="targetPoint" />
          </mxGeometry>
        </mxCell>
        <mxCell id="6-voDm71mwFC1DvUqmNY-26" value="n" style="endArrow=none;html=1;rounded=0;exitX=0;exitY=0.5;exitDx=0;exitDy=0;entryX=0.5;entryY=1;entryDx=0;entryDy=0;" edge="1" parent="1" source="Q7mi7OF3EURctunxMx_V-1" target="6-voDm71mwFC1DvUqmNY-23">
          <mxGeometry x="0.0103" width="50" height="50" relative="1" as="geometry">
            <mxPoint x="-431" y="464" as="sourcePoint" />
            <mxPoint x="-335" y="454" as="targetPoint" />
            <mxPoint as="offset" />
          </mxGeometry>
        </mxCell>
        <mxCell id="6-voDm71mwFC1DvUqmNY-27" value="关联" style="rhombus;whiteSpace=wrap;html=1;rotation=-15;" vertex="1" parent="1">
          <mxGeometry x="-545.5" y="647" width="64" height="105" as="geometry" />
        </mxCell>
        <mxCell id="6-voDm71mwFC1DvUqmNY-28" value="1" style="endArrow=none;html=1;rounded=0;entryX=0.5;entryY=0;entryDx=0;entryDy=0;exitX=0.5;exitY=1;exitDx=0;exitDy=0;" edge="1" parent="1" source="Q7mi7OF3EURctunxMx_V-13" target="6-voDm71mwFC1DvUqmNY-27">
          <mxGeometry width="50" height="50" relative="1" as="geometry">
            <mxPoint x="-518" y="19" as="sourcePoint" />
            <mxPoint x="-518" y="61" as="targetPoint" />
          </mxGeometry>
        </mxCell>
        <mxCell id="6-voDm71mwFC1DvUqmNY-29" value="n" style="endArrow=none;html=1;rounded=0;entryX=0.5;entryY=0;entryDx=0;entryDy=0;exitX=0.5;exitY=1;exitDx=0;exitDy=0;" edge="1" parent="1" source="6-voDm71mwFC1DvUqmNY-27" target="Q7mi7OF3EURctunxMx_V-16">
          <mxGeometry width="50" height="50" relative="1" as="geometry">
            <mxPoint x="-522.5" y="128" as="sourcePoint" />
            <mxPoint x="-522.5" y="170" as="targetPoint" />
          </mxGeometry>
        </mxCell>
        <mxCell id="6-voDm71mwFC1DvUqmNY-31" value="关联" style="rhombus;whiteSpace=wrap;html=1;rotation=-90;" vertex="1" parent="1">
          <mxGeometry x="-179.5" y="773" width="64" height="105" as="geometry" />
        </mxCell>
        <mxCell id="6-voDm71mwFC1DvUqmNY-33" value="1" style="endArrow=none;html=1;rounded=0;exitX=1;exitY=0.5;exitDx=0;exitDy=0;entryX=0.5;entryY=0;entryDx=0;entryDy=0;" edge="1" parent="1" source="Q7mi7OF3EURctunxMx_V-6" target="6-voDm71mwFC1DvUqmNY-31">
          <mxGeometry width="50" height="50" relative="1" as="geometry">
            <mxPoint x="-522.5" y="128" as="sourcePoint" />
            <mxPoint x="-211.5" y="880" as="targetPoint" />
          </mxGeometry>
        </mxCell>
        <mxCell id="6-voDm71mwFC1DvUqmNY-34" value="n" style="endArrow=none;html=1;rounded=0;entryX=0;entryY=0.5;entryDx=0;entryDy=0;exitX=0.5;exitY=1;exitDx=0;exitDy=0;" edge="1" parent="1" source="6-voDm71mwFC1DvUqmNY-31" target="Q7mi7OF3EURctunxMx_V-7">
          <mxGeometry width="50" height="50" relative="1" as="geometry">
            <mxPoint x="-222.5" y="836" as="sourcePoint" />
            <mxPoint x="-181.5" y="836" as="targetPoint" />
          </mxGeometry>
        </mxCell>
        <mxCell id="6-voDm71mwFC1DvUqmNY-35" value="包含" style="rhombus;whiteSpace=wrap;html=1;rotation=-90;" vertex="1" parent="1">
          <mxGeometry x="-114" y="399.5" width="64" height="105" as="geometry" />
        </mxCell>
        <mxCell id="6-voDm71mwFC1DvUqmNY-36" value="1" style="endArrow=none;html=1;rounded=0;entryX=1;entryY=0.5;entryDx=0;entryDy=0;exitX=0.5;exitY=0;exitDx=0;exitDy=0;" edge="1" parent="1" source="6-voDm71mwFC1DvUqmNY-35" target="Q7mi7OF3EURctunxMx_V-1">
          <mxGeometry width="50" height="50" relative="1" as="geometry">
            <mxPoint x="-430" y="464" as="sourcePoint" />
            <mxPoint x="-463" y="464" as="targetPoint" />
          </mxGeometry>
        </mxCell>
        <mxCell id="6-voDm71mwFC1DvUqmNY-37" value="n" style="endArrow=none;html=1;rounded=0;exitX=0;exitY=0.5;exitDx=0;exitDy=0;entryX=0.5;entryY=1;entryDx=0;entryDy=0;" edge="1" parent="1" source="6-voDm71mwFC1DvUqmNY-22" target="6-voDm71mwFC1DvUqmNY-35">
          <mxGeometry x="0.0103" width="50" height="50" relative="1" as="geometry">
            <mxPoint x="-292" y="464" as="sourcePoint" />
            <mxPoint x="-10" y="523" as="targetPoint" />
            <mxPoint as="offset" />
          </mxGeometry>
        </mxCell>
        <mxCell id="6-voDm71mwFC1DvUqmNY-39" value="使用" style="rhombus;whiteSpace=wrap;html=1;rotation=140;" vertex="1" parent="1">
          <mxGeometry x="-480" y="171.5" width="64" height="113" as="geometry" />
        </mxCell>
        <mxCell id="6-voDm71mwFC1DvUqmNY-40" value="1" style="endArrow=none;html=1;rounded=0;entryX=0.5;entryY=0;entryDx=0;entryDy=0;exitX=0.5;exitY=0;exitDx=0;exitDy=0;" edge="1" parent="1" source="6-voDm71mwFC1DvUqmNY-39" target="Q7mi7OF3EURctunxMx_V-1">
          <mxGeometry width="50" height="50" relative="1" as="geometry">
            <mxPoint x="-430" y="464" as="sourcePoint" />
            <mxPoint x="-463" y="464" as="targetPoint" />
          </mxGeometry>
        </mxCell>
        <mxCell id="6-voDm71mwFC1DvUqmNY-41" value="n" style="endArrow=none;html=1;rounded=0;exitX=0.5;exitY=1;exitDx=0;exitDy=0;entryX=0.5;entryY=1;entryDx=0;entryDy=0;" edge="1" parent="1" source="6-voDm71mwFC1DvUqmNY-39" target="Q7mi7OF3EURctunxMx_V-3">
          <mxGeometry x="0.0103" width="50" height="50" relative="1" as="geometry">
            <mxPoint x="-439" y="357.5" as="sourcePoint" />
            <mxPoint x="-511" y="146.5" as="targetPoint" />
            <mxPoint as="offset" />
          </mxGeometry>
        </mxCell>
        <mxCell id="6-voDm71mwFC1DvUqmNY-42" value="使用" style="rhombus;whiteSpace=wrap;html=1;rotation=15;" vertex="1" parent="1">
          <mxGeometry x="-304.5" y="643" width="64" height="113" as="geometry" />
        </mxCell>
        <mxCell id="6-voDm71mwFC1DvUqmNY-45" value="1" style="endArrow=none;html=1;rounded=0;entryX=0.5;entryY=1;entryDx=0;entryDy=0;exitX=0.5;exitY=0;exitDx=0;exitDy=0;" edge="1" parent="1" source="6-voDm71mwFC1DvUqmNY-42" target="Q7mi7OF3EURctunxMx_V-1">
          <mxGeometry width="50" height="50" relative="1" as="geometry">
            <mxPoint x="-255" y="388" as="sourcePoint" />
            <mxPoint x="-232" y="434" as="targetPoint" />
          </mxGeometry>
        </mxCell>
        <mxCell id="6-voDm71mwFC1DvUqmNY-46" value="n" style="endArrow=none;html=1;rounded=0;exitX=0.5;exitY=1;exitDx=0;exitDy=0;entryX=0.5;entryY=0;entryDx=0;entryDy=0;" edge="1" parent="1" source="6-voDm71mwFC1DvUqmNY-42" target="Q7mi7OF3EURctunxMx_V-6">
          <mxGeometry x="0.0103" width="50" height="50" relative="1" as="geometry">
            <mxPoint x="-331.5" y="410" as="sourcePoint" />
            <mxPoint x="-359.5" y="355" as="targetPoint" />
            <mxPoint as="offset" />
          </mxGeometry>
        </mxCell>
        <mxCell id="6-voDm71mwFC1DvUqmNY-48" value="使用" style="rhombus;whiteSpace=wrap;html=1;rotation=-150;" vertex="1" parent="1">
          <mxGeometry x="-146" y="198" width="64" height="113" as="geometry" />
        </mxCell>
        <mxCell id="6-voDm71mwFC1DvUqmNY-49" value="1" style="endArrow=none;html=1;rounded=0;entryX=0.5;entryY=0;entryDx=0;entryDy=0;exitX=0.5;exitY=0;exitDx=0;exitDy=0;" edge="1" parent="1" source="6-voDm71mwFC1DvUqmNY-48" target="Q7mi7OF3EURctunxMx_V-1">
          <mxGeometry width="50" height="50" relative="1" as="geometry">
            <mxPoint x="-255" y="388" as="sourcePoint" />
            <mxPoint x="-232" y="434" as="targetPoint" />
          </mxGeometry>
        </mxCell>
        <mxCell id="6-voDm71mwFC1DvUqmNY-50" value="n" style="endArrow=none;html=1;rounded=0;exitX=0.5;exitY=1;exitDx=0;exitDy=0;entryX=0.5;entryY=1;entryDx=0;entryDy=0;" edge="1" parent="1" source="6-voDm71mwFC1DvUqmNY-48" target="Q7mi7OF3EURctunxMx_V-2">
          <mxGeometry x="0.0103" width="50" height="50" relative="1" as="geometry">
            <mxPoint x="-474" y="194.5" as="sourcePoint" />
            <mxPoint x="-502" y="139.5" as="targetPoint" />
            <mxPoint as="offset" />
          </mxGeometry>
        </mxCell>
        <mxCell id="6-voDm71mwFC1DvUqmNY-51" value="使用" style="rhombus;whiteSpace=wrap;html=1;rotation=-180;" vertex="1" parent="1">
          <mxGeometry x="440" y="245" width="64" height="105" as="geometry" />
        </mxCell>
        <mxCell id="6-voDm71mwFC1DvUqmNY-52" value="1" style="endArrow=none;html=1;rounded=0;entryX=0.5;entryY=0;entryDx=0;entryDy=0;exitX=0.5;exitY=0;exitDx=0;exitDy=0;" edge="1" parent="1" source="6-voDm71mwFC1DvUqmNY-51" target="Q7mi7OF3EURctunxMx_V-8">
          <mxGeometry width="50" height="50" relative="1" as="geometry">
            <mxPoint x="-70" y="386" as="sourcePoint" />
            <mxPoint x="-141" y="434" as="targetPoint" />
          </mxGeometry>
        </mxCell>
        <mxCell id="6-voDm71mwFC1DvUqmNY-53" value="n" style="endArrow=none;html=1;rounded=0;exitX=0.5;exitY=1;exitDx=0;exitDy=0;entryX=0.5;entryY=1;entryDx=0;entryDy=0;" edge="1" parent="1" source="6-voDm71mwFC1DvUqmNY-51" target="Q7mi7OF3EURctunxMx_V-9">
          <mxGeometry x="0.0103" width="50" height="50" relative="1" as="geometry">
            <mxPoint x="28" y="329" as="sourcePoint" />
            <mxPoint x="199" y="246" as="targetPoint" />
            <mxPoint as="offset" />
          </mxGeometry>
        </mxCell>
        <mxCell id="6-voDm71mwFC1DvUqmNY-55" value="使用" style="rhombus;whiteSpace=wrap;html=1;rotation=-180;" vertex="1" parent="1">
          <mxGeometry x="440" y="534" width="64" height="105" as="geometry" />
        </mxCell>
        <mxCell id="6-voDm71mwFC1DvUqmNY-56" value="1" style="endArrow=none;html=1;rounded=0;entryX=0.5;entryY=1;entryDx=0;entryDy=0;exitX=0.5;exitY=1;exitDx=0;exitDy=0;" edge="1" parent="1" source="Q7mi7OF3EURctunxMx_V-8" target="6-voDm71mwFC1DvUqmNY-55">
          <mxGeometry width="50" height="50" relative="1" as="geometry">
            <mxPoint x="482" y="390" as="sourcePoint" />
            <mxPoint x="482" y="429" as="targetPoint" />
          </mxGeometry>
        </mxCell>
        <mxCell id="6-voDm71mwFC1DvUqmNY-58" value="1" style="endArrow=none;html=1;rounded=0;entryX=0.5;entryY=0;entryDx=0;entryDy=0;exitX=0.5;exitY=0;exitDx=0;exitDy=0;" edge="1" parent="1" source="6-voDm71mwFC1DvUqmNY-55" target="Q7mi7OF3EURctunxMx_V-11">
          <mxGeometry width="50" height="50" relative="1" as="geometry">
            <mxPoint x="482" y="489" as="sourcePoint" />
            <mxPoint x="482" y="569" as="targetPoint" />
          </mxGeometry>
        </mxCell>
        <mxCell id="6-voDm71mwFC1DvUqmNY-59" value="1" style="endArrow=none;html=1;rounded=0;entryX=0.5;entryY=0;entryDx=0;entryDy=0;exitX=0.5;exitY=0;exitDx=0;exitDy=0;" edge="1" parent="1" source="6-voDm71mwFC1DvUqmNY-60" target="Q7mi7OF3EURctunxMx_V-10">
          <mxGeometry width="50" height="50" relative="1" as="geometry">
            <mxPoint x="475" y="855" as="sourcePoint" />
            <mxPoint x="482" y="714" as="targetPoint" />
          </mxGeometry>
        </mxCell>
        <mxCell id="6-voDm71mwFC1DvUqmNY-60" value="包含" style="rhombus;whiteSpace=wrap;html=1;rotation=-180;" vertex="1" parent="1">
          <mxGeometry x="440" y="855" width="64" height="105" as="geometry" />
        </mxCell>
        <mxCell id="6-voDm71mwFC1DvUqmNY-61" value="n" style="endArrow=none;html=1;rounded=0;exitX=0.5;exitY=1;exitDx=0;exitDy=0;entryX=0.5;entryY=1;entryDx=0;entryDy=0;" edge="1" parent="1" source="6-voDm71mwFC1DvUqmNY-60" target="Q7mi7OF3EURctunxMx_V-11">
          <mxGeometry x="0.0103" width="50" height="50" relative="1" as="geometry">
            <mxPoint x="482" y="255" as="sourcePoint" />
            <mxPoint x="482" y="159" as="targetPoint" />
            <mxPoint as="offset" />
          </mxGeometry>
        </mxCell>
        <mxCell id="6-voDm71mwFC1DvUqmNY-62" value="使用" style="rhombus;whiteSpace=wrap;html=1;rotation=90;" vertex="1" parent="1">
          <mxGeometry x="261" y="399.5" width="64" height="105" as="geometry" />
        </mxCell>
        <mxCell id="6-voDm71mwFC1DvUqmNY-63" value="1" style="endArrow=none;html=1;rounded=0;entryX=0;entryY=0.5;entryDx=0;entryDy=0;exitX=0.492;exitY=0.057;exitDx=0;exitDy=0;exitPerimeter=0;" edge="1" parent="1" source="6-voDm71mwFC1DvUqmNY-62" target="Q7mi7OF3EURctunxMx_V-8">
          <mxGeometry width="50" height="50" relative="1" as="geometry">
            <mxPoint x="482" y="360" as="sourcePoint" />
            <mxPoint x="482" y="429" as="targetPoint" />
          </mxGeometry>
        </mxCell>
        <mxCell id="6-voDm71mwFC1DvUqmNY-64" value="n" style="endArrow=none;html=1;rounded=0;exitX=1;exitY=0.5;exitDx=0;exitDy=0;entryX=0.5;entryY=1;entryDx=0;entryDy=0;" edge="1" parent="1" source="6-voDm71mwFC1DvUqmNY-22" target="6-voDm71mwFC1DvUqmNY-62">
          <mxGeometry x="0.0103" width="50" height="50" relative="1" as="geometry">
            <mxPoint x="482" y="255" as="sourcePoint" />
            <mxPoint x="482" y="159" as="targetPoint" />
            <mxPoint as="offset" />
          </mxGeometry>
        </mxCell>
        <mxCell id="6-voDm71mwFC1DvUqmNY-65" value="使用" style="rhombus;whiteSpace=wrap;html=1;rotation=-120;" vertex="1" parent="1">
          <mxGeometry x="9" y="215" width="64" height="113" as="geometry" />
        </mxCell>
        <mxCell id="6-voDm71mwFC1DvUqmNY-66" value="1" style="endArrow=none;html=1;rounded=0;entryX=0.5;entryY=0;entryDx=0;entryDy=0;exitX=0.5;exitY=0;exitDx=0;exitDy=0;" edge="1" parent="1" source="6-voDm71mwFC1DvUqmNY-65" target="Q7mi7OF3EURctunxMx_V-1">
          <mxGeometry width="50" height="50" relative="1" as="geometry">
            <mxPoint x="-153" y="293" as="sourcePoint" />
            <mxPoint x="-232" y="434" as="targetPoint" />
          </mxGeometry>
        </mxCell>
        <mxCell id="6-voDm71mwFC1DvUqmNY-67" value="n" style="endArrow=none;html=1;rounded=0;exitX=0.5;exitY=1;exitDx=0;exitDy=0;entryX=0.5;entryY=1;entryDx=0;entryDy=0;" edge="1" parent="1" source="6-voDm71mwFC1DvUqmNY-65" target="Q7mi7OF3EURctunxMx_V-5">
          <mxGeometry x="0.0103" width="50" height="50" relative="1" as="geometry">
            <mxPoint x="-55" y="236" as="sourcePoint" />
            <mxPoint x="-39" y="140" as="targetPoint" />
            <mxPoint as="offset" />
          </mxGeometry>
        </mxCell>
      </root>
    </mxGraphModel>
  </diagram>
</mxfile>
